<?xml version="1.0" encoding="iso-8859-1"?>
<!-- Generator: Adobe Illustrator 27.0.1, SVG Export Plug-In . SVG Version: 6.00 Build 0)  -->
<svg version="1.1" xmlns="http://www.w3.org/2000/svg" xmlns:xlink="http://www.w3.org/1999/xlink" x="0px" y="0px"
	 viewBox="0 0 100 100" style="enable-background:new 0 0 100 100;" xml:space="preserve">
<g id="&#x30EC;&#x30A4;&#x30E4;&#x30FC;_2" style="display:none;">
	
		<rect x="603.506" y="-544.614" style="display:inline;fill:#FDFCF7;stroke:#000000;stroke-miterlimit:10;" width="1459.326" height="1424.534"/>
	<path style="display:inline;" d="M940.088,14.481C939.282,5.086,947.015-8.25,973.836-2.9c19.152,3.82,43.988,15.824,61.613,27.252
		c59.621,38.658,87.487,70.995,121.25,119.759c11.144,16.094,19.455,32.689,23.496,46.357c2.364,7.998-18.96,15.96-21.525,9.068
		c-4.518-12.138-14.675-35.807-33.433-47.499c-59.736-37.231-144.023,18.833-152.212,89.519
		c-8.404,72.535,44.561,97.232,91.66,89.844c105.267-16.511,157.255-81.295,183.045-162.043
		c-3.08-114.158-2.728-142.41,30.887-225.563c28.852-71.371,70.233-122.133,98.785-142.876
		c29.819-21.663,54.242-9.845,52.234,31.318c-1.668,34.202-11.708,80.45-36.145,146.012
		c-24.794,66.52-37.953,136.804-114.159,198.694c0.078,49.782,9.191,102.96,17.696,125.757
		c15.289,40.981,45.39,65.384,60.597,63.768c21.364-2.27,41.092-26.276,47.64-70.035c3.359-22.449-7.212-79.215-21.843-112.831
		c-10.111-23.23,8.49-47.741,38.152-27.378c74.775,51.335,163.735,56.161,217.758,51.656c105.449-8.793,173.565-52.21,173.565-52.21
		s-59.127,65.568-182.304,75.485c-102.443,8.248-180.397-23.463-219.919-47.6c12.248,42.259,21.361,72.126,20.325,107.782
		c-1.975,67.936-29.48,98.802-62.018,103.927c-23.796,3.748-69.46-7.593-92.741-67.578c-18.026-46.444-21.708-70.034-22.098-115.203
		c-36.201,94.408-109.301,141.674-184.65,150.713c-90.693,10.879-147.342-31.744-135.332-113.273
		c11.313-76.797,67.216-148.662,182.583-133.386c-40.403-45.791-82.207-64.622-113.774-74.14
		C975.059,33.981,941.81,34.534,940.088,14.481z M1382.143-160.067c-25.857,26.066-63.001,77.598-83.784,129.299
		c-19.928,49.574-31.138,111.189-25.454,175.479c19.831-29.46,72.347-111.097,98.778-186.807
		C1396.497-113.176,1403.665-181.763,1382.143-160.067z"/>
	<rect x="-462" y="-462" style="display:inline;fill:none;" width="1024" height="1024"/>
</g>
<g id="&#x30EC;&#x30A4;&#x30E4;&#x30FC;_1">
	<g>
		<path style="fill:#E6B422;" d="M51.282,79.064c-3.266,0-7.357-2.581-8.794-7.738c-0.676-2.425-0.841-6.994,0.206-11.323
			c-2.025,3.84-5.623,7.991-8.588,9.967c-3.394,2.262-8.731,4.41-14.104,3.915c-5.929-0.546-11.87-5.288-10.542-13.57
			c0.645-4.025,3.058-7.794,5.955-9.95c3.038-2.261,7.498-3.367,13.173-1.174c-1.138-2.954-5.327-7.469-11.74-10.604
			c-2.568-1.255-2.219-3.361-1.121-4.215c1.456-1.132,2.875-0.441,4.288,0.456c8.211,5.215,11.764,11.205,13.58,16.855
			c0.468,1.458,0.791,3.371,0.733,5.329c-0.028,0.955-0.081,1.699-0.919,1.885c-0.921,0.205-1.455-0.447-1.699-1.292
			c-0.432-1.492-1.45-3.139-2.49-4.038c-3.243-2.802-7.202-2.364-10.483-0.643c-2.36,1.238-4.31,3.769-4.947,7.518
			c-0.635,3.739,1.681,7.814,6.895,8.301c5.797,0.542,9.804-2.082,13.004-4.355c2.735-1.943,7.18-6.769,9.042-10.458
			c-0.275-7.002,0.824-14.047,4.947-21.987c3.955-7.618,10.104-10.894,12.036-11.5c5.524-1.734,8.418,1.03,7.715,7.287
			c-0.448,3.987-2.076,8.773-4.407,12.754c-4.686,8.003-10.105,13.446-16.366,16.16c-0.77,3.348-0.309,9.86,0.354,12.718
			c0.726,3.13,2.755,4.864,4.671,4.957c2.808,0.135,5.188-2.029,5.328-5.171c0.107-2.406-0.363-4.488-1.651-7.062
			c-0.695-1.389-1.486-3.37-0.002-4.671c1.43-1.254,3.434-0.638,5.902,1.321c4.67,3.707,12.603,6.539,17.18,7.016
			c5.273,0.548,12.659,0.726,18.123-1.84c-3.373,4.812-12.482,6.943-20.173,6.033c-6.734-0.797-13.457-4.413-17.04-8.148
			c1.202,2.752,1.804,6.343,1.384,8.864C59.749,76.563,55.937,79.064,51.282,79.064z M60.901,27.08
			c-2.606-0.631-7.175,2.17-10.596,10.024c-1.883,4.323-2.906,8.685-2.906,15.14c4.118-2.117,8.108-7.181,11.564-13.569
			C60.561,35.718,62.942,27.573,60.901,27.08z"/>
		<g>
			<path style="fill:#E6B422;" d="M16.478,58.71c-0.304,1.716,0.229,2.622,1.421,2.784c0.957,0.131,1.761-0.453,1.972-1.537
				c0.218-1.117,0.569-2.417,0.841-3.132c0.566-1.489,0.638-2.161-0.214-2.691c-0.73-0.454-1.932-0.169-2.788,1.157
				C17.219,56.053,16.681,57.564,16.478,58.71z"/>
		</g>
		<g>
			<path style="fill:#E6B422;" d="M22.554,57.252c-0.304,1.716,0.229,2.622,1.421,2.784c0.957,0.131,1.761-0.453,1.972-1.537
				c0.218-1.117,0.499-2.13,0.737-2.857c0.33-1.005,0.463-2.351-0.305-2.7c-0.782-0.356-1.769-0.224-2.593,0.891
				C23.247,54.562,22.757,56.106,22.554,57.252z"/>
		</g>
		<g>
			<path style="fill:#E6B422;" d="M66.184,50.256c1.027-1.8,0.961-3.067-0.119-3.697c-0.796-0.464-1.952-0.219-3.321,1.417
				c-0.676,0.808-2.143,2.42-2.488,2.738c-1.463,1.348-1.691,2.523-0.847,3.399c0.94,0.975,2.324,0.612,3.441-0.157
				C64.024,53.147,65.314,51.782,66.184,50.256z"/>
		</g>
		<g>
			<path style="fill:#E6B422;" d="M72.718,52.394c0.989-1.726,0.934-2.945-0.09-3.556c-0.755-0.45-1.858-0.219-3.171,1.348
				c-0.649,0.774-2.055,2.318-2.387,2.623c-1.402,1.29-1.626,2.419-0.828,3.265c0.889,0.942,2.209,0.599,3.277-0.136
				C70.643,55.164,71.88,53.857,72.718,52.394z"/>
		</g>
	</g>
</g>
</svg>
